PathFileType	4	(X/Y/Z)	/Users/niels/Desktop/University/Third Semester/Perception and Action/Exam/Gymnastics Motion Tracking/Code for Gym Tracking/Analyzed Data/Webcam_Backflip/id19_5_trajectory_Sports2D/id19_5_trajectory_Sports2D_px_person00.trc
DataRate	CameraRate	NumFrames	NumMarkers	Units	OrigDataRate	OrigDataStartFrame	OrigNumFrames
29.714285714285715	29.714285714285715	10	22	m	29.714285714285715	78	105
Frame#	Time	Hip			RHip			RKnee			RAnkle			RBigToe			RSmallToe			RHeel			LHip			LKnee			LAnkle			LBigToe			LSmallToe			LHeel			Neck			Head			Nose			RShoulder			RElbow			RWrist			LShoulder			LElbow			LWrist		
		X1	Y1	Z1	X2	Y2	Z2	X3	Y3	Z3	X4	Y4	Z4	X5	Y5	Z5	X6	Y6	Z6	X7	Y7	Z7	X8	Y8	Z8	X9	Y9	Z9	X10	Y10	Z10	X11	Y11	Z11	X12	Y12	Z12	X13	Y13	Z13	X14	Y14	Z14	X15	Y15	Z15	X16	Y16	Z16	X17	Y17	Z17	X18	Y18	Z18	X19	Y19	Z19	X20	Y20	Z20	X21	Y21	Z21	X22	Y22	Z22
78	2.625	1.1797872715901265	-0.643385112312344	0.0	1.1699014850641747	-0.6465957248103069	0.0	1.2421680478775543	-0.7975916219294814	0.0	1.2768796490393217	-0.9793078649447176	0.0	1.3394528684845275	-0.9914247790966059	0.0	1.3288753431695963	-0.999727401410089	0.0	1.2691872871126708	-1.0033391327127499	0.0	1.1904764266339734	-0.6462575227006819	0.0	1.1482036742923207	-0.7928996499770806	0.0	1.066712271098039	-0.9205405814294836	0.0	1.0782388971565846	-0.9835488713523691	0.0	1.0741924141494754	-0.9747806737448559	0.0	1.051445106847793	-0.9292980398501534	0.0	1.1991542965049284	-0.4160121260586687	0.0	1.2146087128101315	-0.3162795999796119	0.0	1.218949542264489	-0.3730902635097251	0.0	1.1529483002453726	-0.42588390473035204	0.0	1.0755657509210863	-0.48474028847133616	0.0	1.144283266249911	-0.5193458574659005	0.0	1.238942109809618	-0.44699017219699416	0.0	1.3105874981521146	-0.5098492236875013	0.0	1.279041778917571	-0.4642147866670876	0.0
79	2.658653846153846	1.1989246207939384	-0.6485127529323682	0.0	1.1911489084266995	-0.6518940983624084	0.0	1.2526587331747716	-0.8097433351933396	0.0	1.2850483228013505	-0.9926313496390339	0.0	1.348708563696293	-1.0041763210563608	0.0	1.3372840171559799	-1.0121633199777014	0.0	1.276395367450445	-1.0146144845799132	0.0	1.2098948890900445	-0.6510065676894756	0.0	1.167672301643849	-0.7993244924718312	0.0	1.0777696790637157	-0.9185515623440181	0.0	1.0788593189563271	-0.9836138150402017	0.0	1.077889059364657	-0.9746181494144416	0.0	1.0627112210206946	-0.9231804692762061	0.0	1.21063763811819	-0.41815727759866905	0.0	1.2207005810139746	-0.31749366491170106	0.0	1.2288488645879263	-0.3734591883083412	0.0	1.16574862953191	-0.4300823578112112	0.0	1.08694873659985	-0.4902938009300858	0.0	1.1528271612948422	-0.5358753241563488	0.0	1.2499237998037176	-0.44847863475025684	0.0	1.318370476117387	-0.5138659174328872	0.0	1.2869308271460063	-0.4781965328327373	0.0
80	2.692307692307692	1.2181441287845995	-0.6571575860853736	0.0	1.2117624159877132	-0.6604580034158604	0.0	1.2639000228870876	-0.8231181560649495	0.0	1.289551559503384	-1.005752963243286	0.0	1.3522391817038435	-1.0164146109575103	0.0	1.339898992910428	-1.0238544550979873	0.0	1.2798873746383619	-1.0250821223518558	0.0	1.2301433398363268	-0.6591982882142774	0.0	1.1893109179324604	-0.8095556842546452	0.0	1.0900014296255698	-0.9180837064159502	0.0	1.081097678215515	-0.9834640999620409	0.0	1.0829294238556668	-0.9747898107517247	0.0	1.074857589842325	-0.9189431959487128	0.0	1.2225192338623492	-0.42378443154295553	0.0	1.227454977798401	-0.32239001756721614	0.0	1.2398640828615368	-0.3772480866594693	0.0	1.1787337184751054	-0.43866647056190206	0.0	1.1001157083456785	-0.5017666690764847	0.0	1.1638803349698488	-0.557516093961075	0.0	1.261432585193205	-0.4545113930427818	0.0	1.3250586281905785	-0.5230296620724995	0.0	1.2991520889791945	-0.4983302013391578	0.0
81	2.7259615384615383	1.2370444122636108	-0.6683438367285904	0.0	1.2309104614162483	-0.6712111197947059	0.0	1.2755357497436908	-0.8366228184955811	0.0	1.291815508610354	-1.0176658374575775	0.0	1.3514483988793662	-1.0267555924795548	0.0	1.3382538408689233	-1.0335082485485592	0.0	1.2813819149413326	-1.0339657783977731	0.0	1.250804709908867	-0.6697822557576254	0.0	1.2138532142978018	-0.822388042505463	0.0	1.1044240171674404	-0.9182587156928513	0.0	1.0872044261822638	-0.9828548419760124	0.0	1.091008920446142	-0.9748345725056317	0.0	1.0887478444287777	-0.9161751260513668	0.0	1.2349304846342972	-0.4316905619937875	0.0	1.2356875707218593	-0.329459188676882	0.0	1.2520699349062034	-0.38327745365837856	0.0	1.1918799623842153	-0.45037900772735306	0.0	1.1156114561902468	-0.5182306781577743	0.0	1.1780584950745188	-0.5829901579979229	0.0	1.2735782420910022	-0.46388308915274423	0.0	1.3303382884157426	-0.5366374308734304	0.0	1.3154504934522593	-0.5237894064920406	0.0
82	2.7596153846153846	1.2551907571944252	-0.6807121520008943	0.0	1.2478169184925816	-0.682811719093089	0.0	1.2868154753210306	-0.8490523019487798	0.0	1.2929215150687496	-1.027497778332152	0.0	1.3482830422547567	-1.0346031559980746	0.0	1.3342523519587999	-1.0407791222529146	0.0	1.281995663282928	-1.0408918164949248	0.0	1.271346191445115	-0.6813431094689747	0.0	1.2418719898964226	-0.8360993860402297	0.0	1.122430605778487	-0.9184800496382814	0.0	1.09973781505764	-0.9819303983672176	0.0	1.1042646596011112	-0.9745035583465765	0.0	1.1057808585930717	-0.9145634135453854	0.0	1.2478352102318295	-0.44036775708167697	0.0	1.2460010050405883	-0.3369545524429085	0.0	1.265299515633074	-0.3901766419106252	0.0	1.205064549822471	-0.46349010411105257	0.0	1.1337908430766874	-0.5379496931525083	0.0	1.1960020814952215	-0.6101844668724435	0.0	1.286119479539465	-0.47471246349319884	0.0	1.3338470487618395	-0.5529216468567302	0.0	1.3348149789419694	-0.5535374554743783	0.0
83	2.793269230769231	1.2722462091623161	-0.6925980426087684	0.0	1.2620465670206664	-0.6938084944628085	0.0	1.2967862934327814	-0.859235404810126	0.0	1.2935508421982396	-1.0346568521126167	0.0	1.3448247625470868	-1.0400823292475416	0.0	1.3298686174429941	-1.0461108472460223	0.0	1.2823053679066647	-1.0458974902327898	0.0	1.2912337670360872	-0.6922994823056635	0.0	1.2733572798403032	-0.8486542707382629	0.0	1.1452924029174425	-0.9187070013912714	0.0	1.121100422203077	-0.981372954556669	0.0	1.1250166695595976	-0.9740963144267116	0.0	1.1273348352975265	-0.9141557703444155	0.0	1.2610867137383615	-0.4481846090470022	0.0	1.2584952112214591	-0.3432293583645298	0.0	1.2792672589583727	-0.39653475854399345	0.0	1.2181785563772776	-0.47603923153478866	0.0	1.1546052469641956	-0.5584865672502417	0.0	1.2180845496168253	-0.6361903099862734	0.0	1.2986890990839344	-0.4848565766579684	0.0	1.335648619445563	-0.5695185149119194	0.0	1.3549842684809377	-0.5858502509226985	0.0
84	2.8269230769230766	1.2880822099419171	-0.7022897318440476	0.0	1.2737892982477366	-0.7028486174008088	0.0	1.3046032724961618	-0.8662566933531819	0.0	1.2939919817377148	-1.0388606002918197	0.0	1.3424030907254654	-1.0436773161963704	0.0	1.3264336853138567	-1.050101423675223	0.0	1.2825086250158364	-1.0491346462367723	0.0	1.3100342978337862	-0.7011914597336706	0.0	1.3074316567030593	-0.8580588629488336	0.0	1.1737277289604746	-0.9194498115042675	0.0	1.1530055275285946	-0.982220410315531	0.0	1.155246972428885	-0.9743866925122163	0.0	1.1542888799530087	-0.9154330858045988	0.0	1.274532054724293	-0.4536789291670243	0.0	1.272709465461935	-0.34704076965423925	0.0	1.2936771992456078	-0.4010750660767142	0.0	1.2312329536102726	-0.4861577633918603	0.0	1.1774787591339968	-0.5770373320694233	0.0	1.2441754488370267	-0.6577793473746649	0.0	1.3111087411216253	-0.4924057282600172	0.0	1.336541526765461	-0.5841551217939788	0.0	1.3727816359865013	-0.6177518932861177	0.0
85	2.860576923076923	1.302810886025895	-0.7084621641346117	0.0	1.2838159273319647	-0.7088372726283331	0.0	1.309874783886266	-0.8695950353482598	0.0	1.294283134003238	-1.0400616670212377	0.0	1.3413126298733957	-1.0457091483707726	0.0	1.3242731718912875	-1.0528585473737613	0.0	1.2826191186883777	-1.0505528128993333	0.0	1.3275542437520171	-0.7068930535105376	0.0	1.342427517900566	-0.8627791660487992	0.0	1.2077480102653422	-0.9215021504690535	0.0	1.196019652492587	-0.9852139726681023	0.0	1.195929831944758	-0.976122749489978	0.0	1.186931207009493	-0.9191891344304124	0.0	1.2881126266215739	-0.4559192344610148	0.0	1.2879609398769052	-0.3477511701919657	0.0	1.3082885667679116	-0.4028832367620336	0.0	1.2443415547239363	-0.4924279989976864	0.0	1.2013434049665064	-0.5910555428434335	0.0	1.2734354269682033	-0.6722528375594111	0.0	1.32351125923145	-0.49604258803845647	0.0	1.3375699151892666	-0.594748997493496	0.0	1.3853715533959734	-0.645170422863941	0.0
86	2.894230769230769	1.3167366294506442	-0.7105290455316051	0.0	1.2931102461974888	-0.711107969083278	0.0	1.3128833624579586	-0.8691688228426578	0.0	1.294407892146706	-1.0383686340014608	0.0	1.3413304384735731	-1.0461696494468171	0.0	1.3230387571863258	-1.054035263239249	0.0	1.2826297951472962	-1.0498884025877644	0.0	1.3439399349081431	-0.708769609747925	0.0	1.3764873247314302	-0.8621791742999616	0.0	1.2467579267372326	-0.9257177872193951	0.0	1.2491555191446846	-0.9903130938393744	0.0	1.2464568117152746	-0.9796810789547182	0.0	1.225109207408734	-0.9263781576601968	0.0	1.301879372369511	-0.45469887673223897	0.0	1.3037611092529628	-0.3453164454521371	0.0	1.3229661643584998	-0.4015806592825672	0.0	1.2575985964822647	-0.4941757333319162	0.0	1.2249065876152891	-0.5990046855119997	0.0	1.3043007886044065	-0.6782556452988391	0.0	1.3362132136242892	-0.4952426200864955	0.0	1.3393834390389565	-0.5995115248380741	0.0	1.3916193644511596	-0.6641164640512403	0.0
87	2.9278846153846154	1.3302870942963279	-0.7087202147225183	0.0	1.3025156329682355	-0.7096476778801071	0.0	1.31447001834071	-0.8654604943882637	0.0	1.294407355342583	-1.0340923495503367	0.0	1.3421746013864655	-1.0450728302578558	0.0	1.3222828006412128	-1.0533986323123514	0.0	1.2825858053394112	-1.047019763864139	0.0	1.3596260891300258	-0.7068715978462747	0.0	1.408247601843195	-0.8568472165933463	0.0	1.2899773319961685	-0.9328477527432908	0.0	1.3097581664480618	-0.9968940123520755	0.0	1.3046112483824406	-0.9851019834043724	0.0	1.2684726965379938	-0.9377720185832146	0.0	1.3159549363008904	-0.4504220811715147	0.0	1.319895862169036	-0.3400924261449635	0.0	1.3377216686167575	-0.3973291322017084	0.0	1.2710176195727416	-0.4915824133493475	0.0	1.247024704445616	-0.600742063482156	0.0	1.3347460493160777	-0.6760430703985078	0.0	1.349612819840896	-0.49036973680246215	0.0	1.3424810991659948	-0.5978288950861593	0.0	1.3930290950317736	-0.6725742974578789	0.0
